<svg width="100" height="100" viewBox="0 0 100 100" fill="none" xmlns="http://www.w3.org/2000/svg">
<circle cx="50" cy="50" r="50" fill="#EE3A43"/>
<g clip-path="url(#clip0_629_1379)">
<path d="M64.9711 57.0132C63.8512 57.0132 62.7873 57.4518 61.9847 58.2451C61.182 59.0477 60.7341 60.093 60.7341 61.2129C60.7341 62.3329 61.1727 63.3781 61.9847 64.1808C62.7966 64.974 63.8512 65.4127 64.9711 65.4127C67.267 65.4127 69.1336 63.5275 69.1336 61.2129C69.1336 58.8984 67.267 57.0132 64.9711 57.0132ZM64.9711 63.5461C63.6832 63.5461 62.6006 62.4822 62.6006 61.2129C62.6006 59.9437 63.6832 58.8797 64.9711 58.8797C66.2404 58.8797 67.267 59.925 67.267 61.2129C67.267 62.5009 66.2404 63.5461 64.9711 63.5461ZM66.0537 43.0233C65.8858 42.8647 65.6618 42.7807 65.4285 42.7807H60.6407C60.1274 42.7807 59.7075 43.2006 59.7075 43.7139V51.3668C59.7075 51.8801 60.1274 52.3001 60.6407 52.3001H68.2376C68.7509 52.3001 69.1709 51.8801 69.1709 51.3668V46.2431C69.1709 45.9818 69.0589 45.7298 68.8629 45.5525L66.0537 43.0233ZM67.3043 50.4336H61.574V44.6379H65.0645L67.3043 46.6538V50.4336ZM42.1805 57.0132C41.0605 57.0132 39.9966 57.4518 39.194 58.2451C38.3914 59.0477 37.9434 60.093 37.9434 61.2129C37.9434 62.3329 38.382 63.3781 39.194 64.1808C40.0059 64.974 41.0605 65.4127 42.1805 65.4127C44.4763 65.4127 46.3429 63.5275 46.3429 61.2129C46.3429 58.8984 44.4763 57.0132 42.1805 57.0132ZM42.1805 63.5461C40.8926 63.5461 39.8099 62.4822 39.8099 61.2129C39.8099 59.9437 40.8926 58.8797 42.1805 58.8797C43.4497 58.8797 44.4763 59.925 44.4763 61.2129C44.4763 62.5009 43.4497 63.5461 42.1805 63.5461ZM35.9555 58.1611H34.0796V55.6786C34.0796 55.1653 33.6596 54.7453 33.1463 54.7453C32.633 54.7453 32.2131 55.1653 32.2131 55.6786V59.0944C32.2131 59.6077 32.633 60.0277 33.1463 60.0277H35.9555C36.4688 60.0277 36.8888 59.6077 36.8888 59.0944C36.8888 58.5811 36.4688 58.1611 35.9555 58.1611ZM40.6872 53.0747C40.6872 52.5614 40.2673 52.1415 39.754 52.1415H28.4333C27.92 52.1415 27.5 52.5614 27.5 53.0747C27.5 53.588 27.92 54.008 28.4333 54.008H39.754C40.2673 54.008 40.6872 53.5974 40.6872 53.0747ZM30.3278 49.7056L41.6485 49.7709C42.1618 49.7709 42.5818 49.3603 42.5911 48.847C42.6005 48.3243 42.1805 47.9044 41.6672 47.9044L30.3465 47.839H30.3372C29.8239 47.839 29.4039 48.2497 29.4039 48.763C29.3946 49.2856 29.8145 49.7056 30.3278 49.7056ZM32.2317 45.4685H43.5524C44.0657 45.4685 44.4857 45.0485 44.4857 44.5352C44.4857 44.0219 44.0657 43.602 43.5524 43.602H32.2317C31.7184 43.602 31.2984 44.0219 31.2984 44.5352C31.2984 45.0485 31.7184 45.4685 32.2317 45.4685ZM72.988 44.2086L66.3057 38.6742C66.1377 38.5342 65.9324 38.4596 65.7084 38.4596H57.8502V35.0998C57.8502 34.5865 57.4303 34.1665 56.917 34.1665H33.1463C32.633 34.1665 32.2131 34.5865 32.2131 35.0998V41.9314C32.2131 42.4447 32.633 42.8647 33.1463 42.8647C33.6596 42.8647 34.0796 42.4447 34.0796 41.9314V36.0331H55.993V58.1611H48.3401C47.8268 58.1611 47.4068 58.5811 47.4068 59.0944C47.4068 59.6077 47.8268 60.0277 48.3401 60.0277H59.7355C60.2488 60.0277 60.6687 59.6077 60.6687 59.0944C60.6687 58.5811 60.2488 58.1611 59.7355 58.1611H57.8596V40.3261H65.3818L71.4668 45.3658L71.4014 58.1424H70.4308C69.9175 58.1424 69.4976 58.5624 69.4976 59.0757C69.4976 59.589 69.9175 60.009 70.4308 60.009H72.3254C72.8387 60.009 73.2587 59.5984 73.2587 59.0851L73.3333 44.9365C73.324 44.6566 73.2027 44.3859 72.988 44.2086Z" fill="white"/>
</g>
<defs>
<clipPath id="clip0_629_1379">
<rect width="45.8333" height="45.8333" fill="white" transform="translate(27.5 27.5)"/>
</clipPath>
</defs>
</svg>
